<svg width="352" height="237" viewBox="0 0 352 237" fill="none" xmlns="http://www.w3.org/2000/svg">
<g clip-path="url(#clip0_324_920)">
<path d="M316.964 232.886H29.0677C4.23735 200.015 0.999892 156.107 19.3042 120.211C24.7894 109.454 33.8255 98.3892 47.3311 96.6211C58.2066 95.1968 68.8023 100.266 79.7853 100.809C96.7404 101.649 112.028 91.5737 122.071 79.7996C132.115 68.0254 138.601 54.2446 148.547 42.4085C167.23 20.1743 198.292 6.00832 230.181 5.17883C262.07 4.34878 294.072 16.874 314.285 38.0958C331.34 56.0024 339.773 79.0377 342.798 102.035C345.824 125.033 343.811 148.271 342.09 171.368C340.653 190.635 331.786 216.567 316.964 232.886Z" fill="#87BD35" fill-opacity="0.2"/>
<path d="M88.2514 85.2674C100.618 81.5716 110.255 73.1785 118.52 64.4496C126.22 56.3178 133.344 47.2707 135.368 36.93C137.391 26.5892 133.08 14.7134 122.434 9.59556C113.28 5.19531 101.721 6.64521 92.0798 10.195C77.902 15.415 65.9418 24.9643 58.8389 36.7351C52.3333 47.5161 47.9794 63.9098 52.5131 75.8976C56.8426 87.3462 77.2758 88.5478 88.2514 85.2674Z" fill="#FBE6C4"/>
<path d="M260.573 232.886H91.4268V27.5437C91.4268 24.4059 93.9732 21.8623 97.1145 21.8623H254.885C258.027 21.8623 260.573 24.4059 260.573 27.5437V232.886Z" fill="#F0A324"/>
<path d="M245.674 232.885L245.674 34.7399L106.325 34.7399L106.325 232.885L245.674 232.885Z" fill="#FBE6C4"/>
<path d="M176 73.4677C185.035 73.4677 192.36 66.1511 192.36 57.1257C192.36 48.1002 185.035 40.7837 176 40.7837C166.964 40.7837 159.64 48.1002 159.64 57.1257C159.64 66.1511 166.964 73.4677 176 73.4677Z" fill="#87BD35"/>
<path d="M187.241 53.4197H179.71V45.8981H172.29V53.4197H164.759V60.8322H172.29V68.3538H179.71V60.8322H187.241V53.4197Z" fill="white"/>
<g opacity="0.5">
<path d="M162.728 78.2304H119.108V81.0671H162.728V78.2304Z" fill="#1F3300"/>
<path d="M153.391 83.4607H119.108V86.2974H153.391V83.4607Z" fill="#1F3300"/>
</g>
<g opacity="0.5">
<path d="M162.728 96.2041H119.108V99.0408H162.728V96.2041Z" fill="#1F3300"/>
<path d="M158.51 101.434H119.108V104.271H158.51V101.434Z" fill="#1F3300"/>
</g>
<g opacity="0.5">
<path d="M162.728 114.178H119.108V117.015H162.728V114.178Z" fill="#1F3300"/>
<path d="M148.414 119.409H119.108V122.245H148.414V119.409Z" fill="#1F3300"/>
</g>
<path d="M162.728 132.152H119.108V134.989H162.728V132.152Z" fill="#8D8C62"/>
<path d="M158.51 137.382H119.108V140.219H158.51V137.382Z" fill="#8D8C62"/>
<path d="M162.728 150.126H119.108V152.963H162.728V150.126Z" fill="#8D8C62"/>
<path d="M153.391 155.357H119.108V158.193H153.391V155.357Z" fill="#96E4FF"/>
<path d="M240.672 78.2304H197.052V81.0671H240.672V78.2304Z" fill="#8D8C62"/>
<path d="M231.335 83.4607H197.052V86.2974H231.335V83.4607Z" fill="#8D8C62"/>
<path d="M240.672 96.2041H197.052V99.0408H240.672V96.2041Z" fill="#8D8C62"/>
<path d="M236.454 101.434H197.052V104.271H236.454V101.434Z" fill="#8D8C62"/>
<path d="M240.672 114.178H197.052V117.015H240.672V114.178Z" fill="#8D8C62"/>
<path d="M226.358 119.409H197.052V122.245H226.358V119.409Z" fill="#8D8C62"/>
<path d="M240.672 132.152H197.052V134.989H240.672V132.152Z" fill="#96E4FF"/>
<path d="M236.454 137.382H197.052V140.219H236.454V137.382Z" fill="#96E4FF"/>
<path d="M240.672 150.126H197.052V152.963H240.672V150.126Z" fill="#96E4FF"/>
<path d="M231.335 155.357H197.052V158.193H231.335V155.357Z" fill="#96E4FF"/>
<path d="M189.989 76.7436H178.339V88.3802H189.989V76.7436Z" fill="#E5EDCD"/>
<path d="M184.638 86.1571C184.412 86.1571 184.195 86.0673 184.034 85.9077L179.792 81.6699C179.459 81.3375 179.459 80.7972 179.792 80.4649C180.125 80.132 180.665 80.132 180.998 80.4649L184.638 84.0999L193.482 75.2653C193.816 74.9323 194.355 74.9323 194.689 75.2653C195.022 75.5976 195.022 76.1379 194.689 76.4703L185.241 85.9077C185.081 86.0668 184.864 86.1571 184.638 86.1571Z" fill="#8D8C62"/>
<path d="M189.989 94.711H178.339V106.348H189.989V94.711Z" fill="#E5EDCD"/>
<path d="M184.638 104.125C184.412 104.125 184.195 104.035 184.034 103.875L179.792 99.6374C179.459 99.305 179.459 98.7647 179.792 98.4324C180.125 98.0994 180.665 98.0994 180.998 98.4324L184.638 102.067L193.482 93.2327C193.816 92.8998 194.355 92.8998 194.689 93.2327C195.022 93.5651 195.022 94.1054 194.689 94.4378L185.241 103.875C185.081 104.034 184.864 104.125 184.638 104.125Z" fill="#8D8C62"/>
<path d="M189.989 112.678H178.339V124.315H189.989V112.678Z" fill="#E5EDCD"/>
<path d="M184.638 122.092C184.412 122.092 184.195 122.002 184.034 121.843L179.792 117.605C179.459 117.272 179.459 116.732 179.792 116.4C180.125 116.067 180.665 116.067 180.998 116.4L184.638 120.035L193.482 111.2C193.816 110.867 194.355 110.867 194.689 111.2C195.022 111.533 195.022 112.073 194.689 112.405L185.241 121.843C185.081 122.002 184.864 122.092 184.638 122.092Z" fill="#8D8C62"/>
<path d="M189.989 130.646H178.339V142.283H189.989V130.646Z" fill="#96E4FF"/>
<path d="M184.638 140.059C184.412 140.059 184.195 139.97 184.034 139.81L179.792 135.572C179.459 135.239 179.459 134.7 179.792 134.367C180.125 134.034 180.665 134.034 180.998 134.367L184.638 138.002L193.482 129.168C193.816 128.835 194.355 128.835 194.689 129.168C195.022 129.501 195.022 130.04 194.689 130.373L185.241 139.81C185.081 139.969 184.864 140.059 184.638 140.059Z" fill="#6BC5FF"/>
<path d="M189.989 148.613H178.339V160.25H189.989V148.613Z" fill="#96E4FF"/>
<path d="M184.638 158.027C184.412 158.027 184.195 157.937 184.034 157.777L179.792 153.54C179.459 153.207 179.459 152.667 179.792 152.335C180.125 152.002 180.665 152.002 180.998 152.335L184.638 155.97L193.482 147.135C193.816 146.802 194.355 146.802 194.689 147.135C195.022 147.468 195.022 148.008 194.689 148.34L185.241 157.777C185.081 157.937 184.864 158.027 184.638 158.027Z" fill="#6BC5FF"/>
<path d="M205.386 23.9457H146.613V34.7404H205.386V23.9457Z" fill="#FBE6C4"/>
<path d="M205.386 16.607H146.613V23.9457H205.386V16.607Z" fill="#F0A324"/>
<path d="M205.386 34.7404H146.613V42.079H205.386V34.7404Z" fill="#F0A324"/>
<path d="M176 0.130905C171.445 0.130905 167.753 3.81928 167.753 8.36895V16.607H184.247V8.36895C184.247 3.81928 180.555 0.130905 176 0.130905ZM176 11.5886C173.841 11.5886 172.09 9.83986 172.09 7.68263C172.09 5.5254 173.841 3.77666 176 3.77666C178.16 3.77666 179.91 5.5254 179.91 7.68263C179.91 9.83986 178.16 11.5886 176 11.5886Z" fill="#FBE6C4"/>
<path d="M120.165 114.47C124.934 113.269 130.896 115.969 134.604 119.195C138.312 122.422 140.875 126.732 143.373 130.963C149.022 140.531 164.284 163.278 169.933 172.846L203.904 160.678L197.98 188.328L158.368 202.91L123.71 145.528L120.165 114.47Z" fill="white"/>
<path d="M159.033 191.423C151.221 173.424 142.007 155.542 131.727 138.826C134.036 135.755 134.929 131.663 134.109 127.911C133.288 124.158 130.59 120.513 127.209 118.683C128.874 118.032 130.642 117.652 132.426 117.542C128.808 115.132 124.085 113.482 120.165 114.469L123.71 145.527L158.367 202.909L197.979 188.327L200.881 174.781C188.08 182.712 173.765 188.201 159.033 191.423Z" fill="#E4E4E0"/>
<path d="M188.352 199.385C181.278 196.705 173.13 197.375 166.681 201.404C160.043 205.551 156.577 212.764 151.757 218.636C148.941 222.065 145.655 224.806 141.404 226.269C137.183 227.721 132.684 228.053 128.299 228.714C124.058 229.354 119.58 230.516 116.004 232.885H119.475C123.361 231.115 127.949 230.457 132.078 229.895C139.453 228.89 146.123 227.265 151.37 221.665C156.137 216.577 159.178 210.063 164.345 205.327C170.7 199.501 179.905 198.001 187.899 201.028C188.926 201.418 189.371 199.77 188.352 199.385Z" fill="#422C4F"/>
<path d="M197.414 159.075C202.377 168.159 217.515 166.596 217.515 166.596L217.909 161.127C207.353 154.736 199.489 156.312 197.414 159.075Z" fill="#454F6B"/>
<path d="M199.462 157.222L195.196 184.635L161.781 232.886H187.091L207.991 213.255C213.457 208.12 217.233 201.45 218.823 194.126L225.626 162.761L199.462 157.222Z" fill="#F2C9AD"/>
<path d="M199.462 157.222L198.62 162.633C204.44 162.917 210.178 164.831 214.983 168.127C215.699 178.233 214.385 188.6 211.439 198.294C207.234 212.132 195.527 222.582 184.734 232.886H187.091L207.991 213.255C213.457 208.12 217.234 201.45 218.823 194.126L225.626 162.762L199.462 157.222Z" fill="#EBA58E"/>
<path d="M215.565 206.811C216.597 205.273 216.746 203.321 215.987 201.631C214.103 197.434 211.106 193.736 207.367 191.051C203.654 188.383 199.226 186.726 194.678 186.264C192.822 186.075 191.015 186.94 189.929 188.454L176.143 207.644C175.138 209.043 174.709 210.773 174.944 212.478L175.105 213.646L176.633 211.44C187.092 211.905 193.664 219.13 194.644 225.791L192.984 227.35C194.522 227.35 196.02 226.825 197.214 225.857C207.764 217.316 213.131 210.437 215.565 206.811Z" fill="#454F6B"/>
<path d="M209.928 205.525C209.899 205.525 209.87 205.516 209.845 205.498C209.781 205.452 209.766 205.363 209.812 205.3C210.592 204.213 211.356 203.094 212.081 201.974C212.124 201.908 212.212 201.89 212.278 201.932C212.344 201.975 212.363 202.062 212.32 202.129C211.593 203.253 210.826 204.376 210.042 205.466C210.016 205.504 209.971 205.525 209.928 205.525Z" fill="#422C4F"/>
<path d="M196.756 219.902C196.716 219.902 196.677 219.886 196.648 219.853C196.597 219.793 196.604 219.703 196.663 219.652C200.609 216.255 204.253 212.459 207.495 208.369C207.544 208.307 207.633 208.298 207.695 208.345C207.756 208.394 207.767 208.483 207.718 208.545C204.465 212.65 200.809 216.46 196.849 219.868C196.822 219.891 196.789 219.902 196.756 219.902Z" fill="#422C4F"/>
<path d="M241.319 123.786C243.544 126.58 246.995 128.382 250.567 128.542C254.138 128.702 257.764 127.197 260.118 124.51C262.254 122.073 263.248 118.927 263.932 115.719L260.179 114.469L259.325 94.6894L241.334 104.238L242.038 115.033C240.858 115.16 239.674 115.294 238.488 115.43C238.463 118.429 239.45 121.438 241.319 123.786Z" fill="#F2C9AD"/>
<path d="M241.334 104.238L259.325 94.69L259.379 95.9342C258.422 98.8164 256.607 102.273 254.797 104.713C253.619 106.301 252.257 107.782 250.599 108.86C248.941 109.938 246.961 110.594 244.988 110.442C243.755 110.347 242.649 109.943 241.658 109.214L241.334 104.238Z" fill="#422C4F"/>
<path d="M246.61 121.369C246.561 121.369 246.513 121.343 246.487 121.298C244.965 118.652 243.938 115.656 243.515 112.633C243.504 112.555 243.559 112.484 243.637 112.473C243.72 112.464 243.787 112.517 243.797 112.594C244.214 115.581 245.23 118.541 246.733 121.156C246.772 121.224 246.749 121.311 246.681 121.35C246.659 121.363 246.635 121.369 246.61 121.369Z" fill="#422C4F"/>
<path d="M250.141 123.849C250.121 123.849 250.1 123.845 250.08 123.836C250.009 123.802 249.979 123.717 250.013 123.646C251.975 119.55 253.051 114.985 253.123 110.443C253.124 110.365 253.185 110.288 253.267 110.304C253.346 110.305 253.408 110.37 253.407 110.448C253.335 115.029 252.25 119.636 250.27 123.769C250.245 123.819 250.194 123.849 250.141 123.849Z" fill="#422C4F"/>
<path d="M224.859 87.624C224.174 87.0468 223.231 86.7871 222.346 86.9326C221.461 87.078 220.651 87.6257 220.187 88.3921C219.52 89.4937 219.614 90.9601 220.265 92.0714C220.917 93.1827 222.058 93.9537 223.288 94.3383C224.519 94.7224 225.836 94.7491 227.119 94.6212C226.419 92.4157 225.558 89.8295 224.859 87.624Z" fill="#EBA58E"/>
<path d="M228.306 95.0553C220.236 89.8318 215.497 79.1979 216.761 69.1458C217.323 64.6717 218.987 60.3606 221.551 56.7893C225.546 51.2244 231.755 47.5701 238.26 46.9542C244.765 46.3384 251.47 48.7706 256.305 53.4992C259.607 51.8709 264.016 53.5645 266.83 56.0382C269.644 58.5119 271.259 62.3241 271.759 66.1994C272.26 70.0747 271.733 74.0278 270.853 77.8236C270.144 80.8819 269.169 83.9533 267.314 86.3912C264.312 90.3352 259.491 92.0385 254.865 93.1179C246.59 95.0502 235.565 99.7533 228.306 95.0553Z" fill="#422C4F"/>
<path d="M221.588 78.5798C222.884 85.1816 224.245 91.9527 227.831 97.6466C231.417 103.341 237.778 107.804 244.483 107.169C248.504 106.789 252.199 104.63 255.085 101.807C257.971 98.984 260.137 95.5189 262.144 92.0174C263.862 93.9309 267.385 94.1912 269.614 92.9072C271.843 91.6232 273.113 88.9733 273.018 86.4048C272.97 85.1151 272.583 83.7902 271.689 82.8584C270.105 81.2063 267.259 81.2756 265.391 82.5988C263.522 83.922 262.527 86.1951 262.174 88.4558C260.64 87.2757 259.697 85.3776 260.21 83.5135C257.797 82.1937 255.693 79.9876 254.514 77.5049C253.335 75.0221 252.963 72.1655 253.465 69.464C251.146 72.3541 247.591 74.3414 244.044 75.4243C245.41 74.1443 246.295 72.4973 246.897 70.7264C239.501 75.3527 230.313 78.5872 221.588 78.5798Z" fill="#F2C9AD"/>
<path d="M237.89 90.5363H232.735C232.836 91.2113 233.515 91.8311 234.153 92.0737C234.792 92.3163 235.525 92.2487 236.148 91.9669C236.771 91.6851 237.489 91.0891 237.89 90.5363Z" fill="#EBA58E"/>
<path d="M247.305 94.2593C242.969 95.4979 238.533 96.3887 234.054 96.9199C234.793 98.1914 235.915 99.3141 237.276 99.8714C238.638 100.429 240.186 100.524 241.605 100.136C242.961 99.7663 244.181 98.9715 245.154 97.9591C246.128 96.9466 246.756 95.5519 247.305 94.2593Z" fill="white"/>
<path d="M270.465 84.5748C269.358 84.5407 268.245 84.9594 267.436 85.7139C266.627 86.4678 266.132 87.5485 266.089 88.6535C266.07 89.1574 266.15 89.6869 266.445 90.096C266.741 90.5051 267.291 90.7573 267.769 90.5931C268.112 90.4755 268.358 90.175 268.546 89.8653C268.894 89.2938 269.109 88.6046 268.96 87.9524C268.811 87.3002 268.22 86.7258 267.55 86.7548C268.215 85.7276 269.281 84.8827 270.465 84.5748Z" fill="#EBA58E"/>
<path d="M270.469 84.4322C269.317 84.3919 268.18 84.8259 267.338 85.6094C266.498 86.3929 265.991 87.5002 265.947 88.6467C265.923 89.2773 266.052 89.7926 266.33 90.1778C266.605 90.559 267.044 90.7835 267.462 90.7835C267.583 90.7835 267.702 90.7647 267.815 90.7261C267.89 90.7005 267.929 90.6198 267.903 90.5454C267.878 90.471 267.795 90.4318 267.723 90.4573C267.281 90.6096 266.804 90.3488 266.561 90.0114C266.32 89.679 266.21 89.2233 266.232 88.6575C266.267 87.7217 266.633 86.815 267.247 86.1122C268.027 85.9338 268.823 85.8986 269.615 86.0077C269.701 86.019 269.765 85.9639 269.776 85.8866C269.786 85.8088 269.732 85.7372 269.654 85.7264C268.969 85.631 268.281 85.6463 267.602 85.7577C268.382 85.064 269.427 84.6811 270.46 84.7157C270.537 84.7095 270.604 84.6566 270.607 84.5782C270.609 84.5004 270.547 84.435 270.469 84.4322Z" fill="#422C4F"/>
<path d="M250.218 64.0212C250.201 64.0212 250.184 64.0184 250.167 64.0115C243.361 61.393 235.796 61.1981 228.866 63.4627C228.789 63.4871 228.711 63.4462 228.687 63.3718C228.662 63.2974 228.703 63.2173 228.777 63.1928C235.77 60.9089 243.403 61.1061 250.27 63.7468C250.343 63.7752 250.379 63.857 250.351 63.9303C250.33 63.9865 250.276 64.0212 250.218 64.0212Z" fill="#495375"/>
<path d="M250.93 62.5611C250.896 62.5611 250.863 62.5491 250.835 62.5247C247.508 59.5329 242.878 58.1063 238.439 58.7068C238.365 58.721 238.29 58.6625 238.28 58.5852C238.269 58.5074 238.323 58.4358 238.402 58.4256C242.919 57.8142 247.638 59.267 251.025 62.3139C251.083 62.3662 251.088 62.456 251.036 62.5145C251.008 62.5452 250.969 62.5611 250.93 62.5611Z" fill="#495375"/>
<path d="M251.531 61.1203C251.482 61.1203 251.433 61.0941 251.407 61.0481C250.659 59.7209 249.406 58.6665 247.969 58.1551C247.895 58.129 247.856 58.0478 247.883 57.9739C247.91 57.9 247.993 57.8608 248.064 57.8881C249.565 58.4222 250.874 59.5232 251.655 60.9095C251.693 60.9777 251.669 61.064 251.601 61.1026C251.579 61.114 251.555 61.1203 251.531 61.1203Z" fill="#495375"/>
<path d="M252.931 59.8198C252.88 59.8198 252.83 59.7919 252.805 59.7431C251.444 57.1194 248.787 55.1923 245.869 54.7139C245.791 54.7008 245.738 54.6281 245.751 54.5508C245.765 54.4741 245.834 54.4213 245.915 54.4338C248.92 54.9264 251.657 56.9109 253.057 59.613C253.093 59.6829 253.067 59.7681 252.997 59.8044C252.975 59.8147 252.953 59.8198 252.931 59.8198Z" fill="#495375"/>
<path d="M260.007 65.9881C259.967 65.9881 259.926 65.9705 259.898 65.937C258.786 64.6013 257.013 63.8104 255.277 63.8809C255.201 63.878 255.132 63.8229 255.129 63.7445C255.126 63.6661 255.188 63.6002 255.266 63.5968C257.094 63.5275 258.949 64.3536 260.117 65.7546C260.167 65.8148 260.158 65.9046 260.098 65.9546C260.072 65.9773 260.04 65.9881 260.007 65.9881Z" fill="#495375"/>
<path d="M263.783 65.1296C263.742 65.1296 263.7 65.112 263.673 65.0773C261.739 62.7127 258.357 61.7157 255.447 62.6537C255.37 62.6792 255.292 62.6372 255.268 62.5622C255.244 62.4878 255.285 62.4077 255.36 62.3838C258.376 61.4111 261.887 62.4446 263.893 64.8978C263.943 64.9586 263.933 65.0484 263.873 65.0978C263.846 65.1194 263.814 65.1296 263.783 65.1296Z" fill="#495375"/>
<path d="M255.758 61.46C255.701 61.46 255.647 61.4254 255.626 61.3685C255.597 61.2953 255.634 61.2134 255.707 61.185C256.771 60.7782 257.931 60.643 259.058 60.7919C259.136 60.8021 259.19 60.8737 259.18 60.9515C259.169 61.0288 259.103 61.0816 259.02 61.0737C257.941 60.9299 256.829 61.0606 255.81 61.4504C255.792 61.4572 255.776 61.46 255.758 61.46Z" fill="#495375"/>
<path d="M263.243 60.2004C263.215 60.2004 263.186 60.1919 263.161 60.1748C261.182 58.7846 258.343 58.6664 256.256 59.8874C256.189 59.9266 256.1 59.9038 256.061 59.8368C256.022 59.7692 256.045 59.6817 256.112 59.6425C258.292 58.3682 261.259 58.4914 263.324 59.943C263.389 59.9885 263.405 60.0766 263.359 60.1413C263.332 60.1794 263.287 60.2004 263.243 60.2004Z" fill="#495375"/>
<path d="M242.792 75.8493C242.115 76.7589 241.27 77.7844 240.274 78.3275C244.786 78.0145 249.012 76.1794 252.04 72.8234C252.483 73.7659 253.06 74.6375 253.742 75.4215C253.203 73.4904 253.099 71.4371 253.465 69.4657C251.146 72.3558 247.591 74.3432 244.044 75.426C245.41 74.146 246.295 72.499 246.897 70.7281C239.502 75.3539 230.314 78.5883 221.588 78.5809C221.786 79.5911 221.987 80.6046 222.196 81.6182C229.44 81.9403 236.776 79.8973 242.792 75.8493Z" fill="#EBA58E"/>
<path d="M244.204 78.3366C242.172 78.3792 240.391 79.3888 239.279 80.912L249.233 80.7035C248.058 79.228 246.237 78.294 244.204 78.3366Z" fill="#422C4F"/>
<path d="M228.896 78.3366C227.562 78.3792 226.393 79.3888 225.664 80.912L232.198 80.7035C231.426 79.228 230.231 78.294 228.896 78.3366Z" fill="#422C4F"/>
<path d="M243.897 87.2695C243.177 87.2695 242.593 86.6866 242.593 85.9673V85.1623C242.593 84.443 243.177 83.8601 243.897 83.8601C244.617 83.8601 245.201 84.443 245.201 85.1623V85.9673C245.201 86.6866 244.617 87.2695 243.897 87.2695Z" fill="#422C4F"/>
<path d="M228.93 87.2695C228.355 87.2695 227.888 86.8036 227.888 86.2287V84.9015C227.888 84.3265 228.355 83.8607 228.93 83.8607C229.506 83.8607 229.972 84.3265 229.972 84.9015V86.2287C229.972 86.8036 229.506 87.2695 228.93 87.2695Z" fill="#422C4F"/>
<path d="M290.323 124.507L263.932 115.72C263.247 118.928 262.253 122.074 260.118 124.511C257.763 127.198 254.138 128.703 250.567 128.543C246.995 128.383 243.544 126.581 241.318 123.787C239.449 121.439 238.462 118.43 238.487 115.432C233.917 115.954 229.309 116.528 224.714 117.086C217.59 117.949 211.246 122.033 207.564 128.185C201.936 137.587 198.294 148.265 197.414 159.076C204.324 158.799 211.495 160.3 217.758 163.229L214.108 213.894L209.937 232.886H291.84L295.352 208.032C296.42 200.476 296.606 192.823 295.907 185.224L290.323 124.507Z" fill="#87BD35"/>
<path d="M217.909 132.224C218.153 136.164 217.379 140.665 216.442 144.501C215.558 144.222 214.476 144.777 213.893 145.497C213.309 146.217 213.071 147.157 212.966 148.077C212.701 150.383 213.188 152.77 214.336 154.788C212.045 153.826 209.663 153.423 207.19 153.177C209.414 154.152 211.34 156.006 212.739 157.991C209.497 157.911 206.288 158.374 203.182 159.251C208.22 159.743 213.227 161.11 217.758 163.228L217.909 161.128C219.227 146.853 218.724 137.621 217.909 132.224Z" fill="#87BD35"/>
<path d="M217.757 163.37C217.754 163.37 217.75 163.37 217.747 163.369C217.669 163.363 217.609 163.296 217.616 163.217L217.768 161.117C218.448 153.734 218.702 147.057 218.521 141.267C218.518 141.189 218.58 141.124 218.658 141.121C218.742 141.126 218.803 141.179 218.805 141.258C218.986 147.059 218.733 153.748 218.051 161.139L217.899 163.237C217.894 163.313 217.831 163.37 217.757 163.37Z" fill="#422C4F"/>
<path d="M295.907 185.224L291.164 133.65L279.239 140.79C276.704 146.995 276.91 154.804 280.476 160.481C278.528 159.513 276.702 159.043 274.753 158.074C275.619 159.663 276.492 161.34 277.362 162.978C278.026 164.227 278.963 165.308 280.105 166.143C282.096 167.598 283.432 169.781 283.821 172.215C286.227 187.237 285.121 202.612 280.59 217.136L275.677 232.885H291.84L295.352 208.031C296.42 200.476 296.606 192.823 295.907 185.224Z" fill="#87BD35"/>
<path d="M264.321 123.995C264.301 123.995 264.281 123.99 264.262 123.982C264.19 123.949 264.159 123.864 264.193 123.793C264.87 122.337 265.3 120.814 265.472 119.265C265.48 119.188 265.551 119.119 265.628 119.14C265.707 119.148 265.763 119.219 265.754 119.296C265.579 120.876 265.14 122.429 264.45 123.912C264.426 123.964 264.375 123.995 264.321 123.995Z" fill="#422C4F"/>
<path d="M250.717 132.71C248.418 132.71 246.12 132.203 244.047 131.183C239.697 129.041 236.533 124.738 235.789 119.951C235.777 119.873 235.83 119.801 235.908 119.789C235.986 119.777 236.058 119.83 236.07 119.907C236.799 124.605 239.904 128.828 244.172 130.928C248.443 133.029 253.686 132.915 257.858 130.63C259.586 129.683 261.159 128.331 262.407 126.721C262.455 126.658 262.544 126.647 262.607 126.696C262.669 126.743 262.68 126.833 262.632 126.895C261.36 128.536 259.756 129.914 257.995 130.879C255.769 132.098 253.243 132.71 250.717 132.71Z" fill="#422C4F"/>
<path d="M270.462 169.205C254.066 169.205 237.934 162.69 226.149 151.299C226.092 151.244 226.09 151.155 226.145 151.098C226.2 151.042 226.29 151.041 226.346 151.095C238.078 162.435 254.14 168.921 270.462 168.921C270.573 168.921 270.683 168.92 270.795 168.92C270.873 168.92 270.937 168.983 270.938 169.061C270.938 169.14 270.875 169.203 270.796 169.204C270.686 169.204 270.572 169.205 270.462 169.205Z" fill="#422C4F"/>
<path d="M254.594 160.984C251.074 160.984 247.554 160.782 244.055 160.378C243.976 160.369 243.921 160.299 243.93 160.222C243.939 160.144 243.999 160.087 244.087 160.097C251.635 160.967 259.28 160.895 266.809 159.883C266.884 159.876 266.959 159.927 266.969 160.005C266.979 160.083 266.925 160.155 266.847 160.165C262.786 160.711 258.689 160.984 254.594 160.984Z" fill="#422C4F"/>
<path d="M252.964 203.312C245.601 203.312 238.823 202.492 233.415 201.534C233.341 201.521 233.29 201.453 233.298 201.379C233.306 201.306 233.37 201.254 233.444 201.252C248.409 201.742 263.436 198.541 276.904 192.013C276.974 191.978 277.06 192.007 277.094 192.078C277.129 192.148 277.099 192.234 277.029 192.268C264.105 198.532 249.745 201.739 235.384 201.578C245.823 203.254 260.542 204.204 274.722 200.252C274.798 200.234 274.876 200.275 274.898 200.351C274.919 200.426 274.874 200.505 274.799 200.526C267.441 202.576 259.94 203.312 252.964 203.312Z" fill="#422C4F"/>
<path d="M244.683 197.233C236.886 197.233 229.083 195.324 222.22 191.62C222.152 191.583 222.126 191.497 222.163 191.427C222.2 191.359 222.286 191.332 222.356 191.37C232.56 196.876 244.859 198.394 256.102 195.532C256.177 195.513 256.256 195.558 256.275 195.634C256.294 195.711 256.248 195.788 256.172 195.807C252.421 196.763 248.552 197.233 244.683 197.233Z" fill="#422C4F"/>
<path d="M316.866 164.276C311.179 176.776 296.959 177.154 290.134 175.45C289.47 160.678 311.179 156.985 316.866 164.276Z" fill="#454F6B"/>
<path d="M290.181 170.857L301.13 198.27L281.034 232.886H303.405L321.433 210.236C325.566 205.043 326.757 198.101 324.592 191.831L313.833 160.678L290.181 170.857Z" fill="#F2C9AD"/>
<path d="M315.515 165.55L313.833 160.678L290.182 170.857L301.131 198.27L296.125 175.089C301.231 169.808 308.215 166.387 315.515 165.55Z" fill="#EBA58E"/>
<path d="M281.034 153.103L290.134 175.45C295.632 167.306 309.472 163.708 316.866 164.276C301.32 126.589 299.424 127.536 290.323 124.506C281.223 121.476 276.27 141.406 281.034 153.103Z" fill="#87BD35"/>
<path d="M288.449 171.455C288.393 171.455 288.34 171.422 288.317 171.367L280.902 153.156C279.303 149.231 278.708 144.232 279.226 139.079C279.234 139.001 279.295 138.94 279.382 138.952C279.46 138.96 279.517 139.029 279.509 139.107C278.996 144.215 279.584 149.166 281.165 153.049L288.581 171.26C288.61 171.333 288.575 171.415 288.502 171.445C288.486 171.452 288.467 171.455 288.449 171.455Z" fill="#422C4F"/>
<path d="M290.125 167.881C290.083 167.881 290.04 167.861 290.012 167.824C289.965 167.762 289.977 167.673 290.039 167.625C295.676 163.352 302.675 160.862 309.747 160.614C309.829 160.623 309.892 160.672 309.895 160.751C309.898 160.829 309.836 160.895 309.758 160.898C302.743 161.144 295.802 163.613 290.212 167.851C290.186 167.871 290.155 167.881 290.125 167.881Z" fill="#422C4F"/>
<path d="M292.938 162.285C292.896 162.285 292.854 162.266 292.826 162.23C292.778 162.168 292.789 162.078 292.85 162.03C296.039 159.539 300.021 158.047 304.063 157.826C304.066 157.826 304.069 157.826 304.071 157.826C304.146 157.826 304.209 157.885 304.213 157.96C304.217 158.039 304.157 158.106 304.079 158.11C300.095 158.327 296.169 159.8 293.026 162.254C292.999 162.275 292.968 162.285 292.938 162.285Z" fill="#422C4F"/>
<path d="M285.537 225.27C285.513 225.27 285.488 225.264 285.466 225.25C285.398 225.212 285.375 225.124 285.414 225.057L304.94 191.424C304.979 191.356 305.067 191.332 305.134 191.372C305.202 191.411 305.225 191.498 305.186 191.566L285.66 225.199C285.634 225.244 285.586 225.27 285.537 225.27Z" fill="#422C4F"/>
<path d="M53.2871 232.886C55.1299 208.217 61.7971 182.001 68.0661 158.07C70.513 148.728 73.3352 139.369 78.1971 131.023C83.059 122.675 90.2159 113.971 99.595 111.629C105.662 110.114 111.729 114.281 122.353 127.189L128.223 183.025C129.171 203.289 125 232.886 125 232.886H53.2871Z" fill="white"/>
<path d="M122.949 132.857L102.376 139.637C101.251 148.796 103.009 158.284 107.319 166.444C102.344 178.858 91.0638 194.794 78.5508 205.622C97.6997 194.398 108.411 172.63 108.411 172.63C104.619 195.145 81.5835 220.57 81.5835 220.57C100.495 210.485 110.875 183.777 110.875 183.777C114.442 190.483 115.963 198.391 115.812 205.984C115.627 215.239 112.596 224.158 109.452 232.885H125C125 232.885 129.171 203.288 128.223 183.025L122.949 132.857Z" fill="#E4E4E0"/>
<path d="M124.797 197.725C124.615 199.241 123.599 200.367 122.527 200.239C121.455 200.111 120.733 198.778 120.914 197.262C121.096 195.745 122.111 194.619 123.184 194.747C124.256 194.875 124.977 196.208 124.797 197.725Z" fill="#A59B95"/>
<path d="M123.118 216.799C122.937 218.315 121.921 219.441 120.849 219.313C119.777 219.186 119.054 217.853 119.236 216.336C119.417 214.819 120.433 213.693 121.505 213.821C122.577 213.949 123.3 215.282 123.118 216.799Z" fill="#A59B95"/>
<path d="M70.402 199.539C70.3536 199.539 70.307 199.514 70.2803 199.47C70.2399 199.403 70.2609 199.315 70.328 199.275C77.378 195.022 84.6674 190.623 91.1281 185.303C98.3595 179.349 103.66 172.892 106.883 166.112C106.917 166.042 107.003 166.011 107.073 166.045C107.143 166.079 107.174 166.163 107.14 166.234C103.899 173.052 98.5728 179.542 91.3095 185.523C84.8329 190.856 77.5338 195.259 70.4759 199.518C70.4526 199.532 70.427 199.539 70.402 199.539Z" fill="#222221"/>
<path d="M72.2775 223.83C72.2371 223.83 72.1967 223.813 72.1689 223.78C72.1183 223.72 72.1256 223.63 72.1854 223.58C87.5804 210.567 99.7726 193.842 107.443 175.213C107.473 175.14 107.556 175.106 107.628 175.135C107.701 175.165 107.735 175.248 107.706 175.32C100.018 193.991 87.7993 210.754 72.3691 223.795C72.3429 223.819 72.3099 223.83 72.2775 223.83Z" fill="#222221"/>
<path d="M134.086 177.491C138.067 194.116 140.103 215.811 139.286 232.886H128.363L126.801 177.249L134.086 177.491Z" fill="#E4E4E0"/>
<path d="M126.801 177.249C132.489 198.27 131.846 232.886 131.846 232.886H121.176L126.801 177.249Z" fill="#87BD35"/>
<path d="M117.132 116.931L121.479 105.687L104.562 94.6712L102.936 106.889L116.041 113.144L117.132 116.931Z" fill="#EBA58E"/>
<path d="M113.256 108.308C115.323 109.332 117.684 109.783 119.974 109.58L121.479 105.687L104.863 94.8672C105.016 96.8563 105.451 98.8181 106.231 100.653C107.616 103.906 110.086 106.737 113.256 108.308Z" fill="#422C4F"/>
<path d="M116.041 113.144L117.132 116.932L119.108 111.818L124.905 114.375L121.113 119.867C125.663 127.348 127.369 135.87 127.606 149.126L113.488 119.867L116.041 113.144Z" fill="#87BD35"/>
<path d="M124.905 114.374L125.332 120.388L122.121 118.407L124.905 114.374Z" fill="#87BD35"/>
<path d="M100.769 111.333L102.038 106.46L116.041 113.144L112.836 121.589L100.769 111.333Z" fill="#87BD35"/>
<path d="M112.835 121.731C112.802 121.731 112.769 121.719 112.743 121.697L102.122 112.669C102.062 112.618 102.055 112.528 102.106 112.469C102.157 112.409 102.246 112.402 102.307 112.453L112.774 121.351L115.515 114.128C115.543 114.056 115.624 114.019 115.699 114.046C115.772 114.074 115.809 114.156 115.781 114.229L112.969 121.64C112.952 121.683 112.916 121.715 112.871 121.727C112.859 121.729 112.847 121.731 112.835 121.731Z" fill="#222221"/>
<path d="M99.0877 89.5085C95.8173 86.2758 92.5207 82.9869 90.1699 79.036C87.8192 75.0852 86.478 70.3383 87.4563 65.8472C88.4346 61.356 92.11 57.3114 96.6829 56.8064C95.2019 55.2229 95.7598 52.7356 97.1852 51.1017C98.6105 49.4677 100.921 48.8189 103.087 48.9495C105.252 49.0808 107.314 49.8944 109.293 50.7812C112.497 47.3707 117.321 45.4413 121.992 45.1072C123.958 44.9669 126.068 45.1816 127.636 46.3764C129.204 47.5712 129.95 49.987 128.801 51.588C131.337 50.4722 134.541 51.2346 136.75 52.9055C138.959 54.5764 140.161 57.4853 139.773 60.2266C139.385 62.9673 137.656 65.9409 134.488 67.0266L107.179 92.6907L99.0877 89.5085Z" fill="#D4CFBE"/>
<path d="M107.339 90.6971C107.15 88.9972 106.886 87.2735 106.141 85.7338C105.395 84.1941 104.094 82.8425 102.436 82.4159C101.256 82.1119 99.9808 82.3 98.8722 82.805C96.7552 83.7697 95.2349 85.9292 95.0421 88.245C94.8493 90.5613 95.9908 92.9418 97.9184 94.2429C99.8465 95.5439 102.483 95.7138 104.563 94.6707C106.61 100.489 111.857 105.435 117.937 106.514C120.651 106.995 123.51 106.817 126.063 105.781C129.341 104.452 131.956 101.772 133.662 98.6761C135.368 95.5797 136.226 92.0816 136.677 88.5762C137.606 81.3517 136.851 73.9165 134.489 67.0249C131.706 67.6152 128.854 68.1283 126.023 67.8493C125.582 69.2242 124.68 70.5122 123.388 71.1582C122.186 71.7587 120.791 71.895 119.454 71.7507C118.118 71.6064 116.826 71.1957 115.559 70.7474C116.171 73.3665 115.963 76.2294 114.73 78.6207C113.497 81.0114 111.391 82.9414 108.9 83.9635C109.02 85.0424 109.248 86.2917 109.07 87.3621C108.891 88.4347 108.247 90.1011 107.339 90.6971Z" fill="#EBA58E"/>
<path d="M121.131 74.8107C123.123 74.4034 125.083 74.9948 126.504 76.2345L116.75 78.2298C117.57 76.5316 119.139 75.2187 121.131 74.8107Z" fill="#D4CFBE"/>
<path d="M133.92 74.7545C135.22 75.0579 136.168 76.2771 136.584 77.9139L130.218 76.4282C131.264 75.1329 132.62 74.4511 133.92 74.7545Z" fill="#D4CFBE"/>
<path d="M122.15 83.9845C122.87 83.9845 123.454 83.4016 123.454 82.6823V81.8773C123.454 81.158 122.87 80.5751 122.15 80.5751C121.43 80.5751 120.847 81.158 120.847 81.8773V82.6823C120.847 83.4016 121.431 83.9845 122.15 83.9845Z" fill="#422C4F"/>
<path d="M133.83 83.9845C134.296 83.9845 134.675 83.6067 134.675 83.1402V81.4193C134.675 80.9529 134.297 80.5751 133.83 80.5751C133.364 80.5751 132.985 80.9529 132.985 81.4193V83.1402C132.985 83.6061 133.364 83.9845 133.83 83.9845Z" fill="#422C4F"/>
<path d="M123.71 95.9876C124.996 97.6722 127.195 98.6153 129.303 98.3863C131.412 98.1574 133.356 96.7643 134.249 94.8428C133.358 93.5435 132.02 92.4129 130.66 91.6175C128.455 92.9447 125.914 94.6599 123.71 95.9876Z" fill="white"/>
<path d="M130.289 90.0301C126.96 92.3191 123.105 93.84 119.108 94.4423C120.737 96.0501 123.052 97.0665 125.317 96.737C127.583 96.4075 129.66 94.9678 130.761 92.9628C131.576 94.0582 132.538 95.4422 133.848 95.8274C134.626 96.0558 135.49 95.974 136.211 95.6041C136.933 95.2343 137.502 94.5792 137.769 93.8145C135.168 93.2213 132.161 91.9305 130.289 90.0301Z" fill="#D4CFBE"/>
<path d="M132.181 89.1137C130.656 89.1427 129.131 89.1716 127.606 89.2006C128.16 89.7829 128.735 90.4204 129.509 90.6374C130.058 90.7914 130.666 90.7255 131.169 90.4573C131.672 90.1892 132.003 89.6551 132.181 89.1137Z" fill="#E78882"/>
<path d="M98.0459 87.8973C98.2814 87.0638 99.0725 86.4434 99.9308 86.3213C100.789 86.1997 101.679 86.5411 102.306 87.1394C102.933 87.7371 103.308 88.5688 103.443 89.4239C103.554 90.1295 103.495 90.9016 103.073 91.4783C102.651 92.055 101.793 92.3436 101.185 91.968C100.683 91.6573 100.494 91.0255 100.404 90.4426C100.335 89.9881 100.305 89.504 100.497 89.0864C100.69 88.6688 101.169 88.3518 101.61 88.4842C101.2 87.9581 100.654 87.5877 100.001 87.4507C99.3484 87.315 98.6323 87.5797 98.0459 87.8973Z" fill="#E78882"/>
<path d="M115.368 80.2842C116.896 78.3241 117.733 75.8357 117.7 73.3512C119.472 74.2807 121.833 74.6028 123.699 73.8796C125.565 73.1563 127.089 71.5996 127.771 69.7191C130.283 70.094 132.865 70.2497 135.38 69.9452C135.113 68.9634 134.818 67.9891 134.487 67.0266C131.705 67.6169 128.853 68.13 126.022 67.851C125.58 69.2259 124.678 70.5139 123.386 71.1599C122.184 71.7604 120.79 71.8967 119.453 71.7524C118.116 71.6081 116.824 71.1974 115.558 70.7491C116.17 73.3682 115.961 76.2311 114.728 78.6224C113.495 81.0131 111.39 82.9431 108.899 83.9652C111.386 83.9652 113.839 82.2443 115.368 80.2842Z" fill="#E78882"/>
<path d="M120.199 52.4192C121.218 51.755 122.449 51.4533 123.657 51.5675C123.734 51.5755 123.805 51.5181 123.813 51.4397C123.82 51.3613 123.763 51.292 123.685 51.2846C122.411 51.1625 121.117 51.4818 120.044 52.1811C118.972 52.8805 118.16 53.935 117.757 55.1497C117.756 55.1542 117.759 55.1582 117.759 55.1622C116.342 54.8537 114.831 54.9377 113.48 55.4457C111.567 56.1644 109.959 57.7205 109.18 59.609C109.15 59.6812 109.184 59.7647 109.257 59.7942C109.275 59.8016 109.294 59.805 109.311 59.805C109.367 59.805 109.42 59.7721 109.443 59.717C110.192 57.9 111.739 56.403 113.58 55.711C115.42 55.0196 117.573 55.1269 119.335 56.0007C119.406 56.0354 119.491 56.007 119.526 55.9365C119.561 55.8661 119.532 55.7809 119.462 55.7457C119.008 55.5207 118.528 55.3451 118.035 55.2184C118.419 54.0736 119.186 53.0794 120.199 52.4192Z" fill="#A59B95"/>
<path d="M98.2488 56.7104C99.5974 56.0019 101.204 55.8559 102.658 56.3081C104.112 56.7609 105.351 57.7932 106.058 59.1409C106.083 59.1892 106.133 59.217 106.184 59.217C106.206 59.217 106.229 59.2119 106.25 59.2011C106.319 59.1647 106.346 59.0789 106.309 59.0091C105.568 57.5955 104.268 56.5121 102.742 56.0365C101.217 55.5616 99.5314 55.7155 98.1169 56.4587C98.0469 56.495 98.0202 56.5808 98.0572 56.6501C98.0936 56.7206 98.18 56.7467 98.2488 56.7104Z" fill="#A59B95"/>
<path d="M105.626 53.5583C105.665 53.5583 105.705 53.5418 105.733 53.51C106.67 52.4453 108.076 51.7692 109.493 51.7011C110.918 51.6386 112.375 52.1726 113.41 53.1424C113.467 53.1964 113.558 53.1936 113.611 53.1362C113.665 53.0788 113.662 52.989 113.604 52.9356C112.514 51.9135 110.973 51.3397 109.48 51.4181C107.987 51.4891 106.506 52.2016 105.519 53.3231C105.467 53.3822 105.473 53.4719 105.532 53.5237C105.56 53.5469 105.593 53.5583 105.626 53.5583Z" fill="#A59B95"/>
<path d="M105.396 65.3773C104.084 64.3888 102.559 63.69 100.938 63.3712C98.5797 62.9059 96.0975 63.2434 93.9487 64.3183C93.8782 64.3535 93.8503 64.4388 93.885 64.5086C93.9203 64.5791 94.0056 64.6069 94.0755 64.5723C96.1686 63.5252 98.5865 63.1985 100.883 63.6496C103.18 64.1018 105.292 65.3216 106.831 67.084C106.859 67.1164 106.899 67.1329 106.938 67.1329C106.971 67.1329 107.004 67.1215 107.031 67.0977C107.091 67.046 107.096 66.9568 107.045 66.8977C106.62 66.4113 106.15 65.9688 105.648 65.5677C107.78 64.3706 110.454 64.2575 112.673 65.2921C112.744 65.3256 112.828 65.2949 112.862 65.2234C112.896 65.1523 112.864 65.0677 112.793 65.0347C110.453 63.9439 107.625 64.078 105.396 65.3773Z" fill="#A59B95"/>
<path d="M127.42 55.2179C125.947 55.398 124.572 56.0888 123.55 57.1632C122.527 58.2381 121.906 59.6442 121.8 61.1231C121.794 61.2015 121.854 61.2691 121.932 61.2748C121.936 61.2754 121.939 61.2754 121.942 61.2754C122.016 61.2754 122.078 61.218 122.084 61.1436C122.184 59.7505 122.793 58.3716 123.756 57.3592C124.719 56.3467 126.067 55.6695 127.455 55.4996C127.533 55.49 127.589 55.4195 127.579 55.3417C127.569 55.2633 127.496 55.2059 127.42 55.2179Z" fill="#A59B95"/>
<path d="M197.027 127.107C191.359 143.101 190.454 160.134 186.543 176.544C184.807 183.829 182.464 191.032 178.94 197.663C175.54 204.059 170.591 211.335 164.03 214.865C154.354 220.073 148.987 208.193 146.636 200.899C144.052 192.884 143.012 184.482 142.193 176.134C140.752 161.439 139.917 146.035 132.822 132.734C132.167 131.506 131.426 130.32 130.629 129.162C131.914 120.034 132.238 110.859 131.571 101.695C131.076 102.273 130.542 102.812 129.975 103.313C130.459 111.269 130.197 119.243 129.183 127.165C119.697 114.822 103.764 105.613 102.687 89.1307C102.616 88.0416 100.909 88.0337 100.981 89.1307C102.131 106.743 119.198 115.653 128.402 128.778C138.562 143.266 138.966 161.744 140.744 178.68C141.652 187.327 142.917 196.041 145.989 204.22C148.084 209.798 151.624 217.031 158.335 217.821C165.264 218.637 171.304 211.681 175.098 206.788C179.849 200.66 183.165 193.549 185.591 186.218C191.915 167.114 191.938 146.564 198.672 127.56C199.039 126.524 197.391 126.078 197.027 127.107Z" fill="#454F6B"/>
<path d="M202.167 115.241L199.137 115.721L199.35 117.058C197.704 119.198 196.952 122.942 197.598 127.005C198.244 131.068 200.12 134.395 202.349 135.921L202.561 137.257L205.591 136.776C209.06 136.226 211.105 130.959 210.16 125.012C209.214 119.065 205.636 114.69 202.167 115.241Z" fill="#797C99"/>
<path d="M207.13 125.492C208.076 131.439 206.03 136.706 202.561 137.256C199.093 137.807 195.514 133.432 194.569 127.485C193.624 121.538 195.669 116.271 199.138 115.721C202.607 115.171 206.185 119.546 207.13 125.492Z" fill="#99A3B0"/>
<path d="M196.454 118.88L190.605 119.808L190.764 120.814C189.526 122.424 188.96 125.241 189.446 128.298C189.932 131.355 191.343 133.858 193.021 135.006L193.181 136.011L199.03 135.084C201.641 134.669 203.179 130.707 202.468 126.233C201.757 121.758 199.065 118.466 196.454 118.88Z" fill="#797C99"/>
<path d="M196.618 127.16C197.33 131.634 195.791 135.597 193.18 136.011C190.57 136.425 187.878 133.133 187.167 128.659C186.455 124.185 187.994 120.222 190.605 119.808C193.215 119.394 195.907 122.686 196.618 127.16Z" fill="#99A3B0"/>
<path d="M101.616 90.6784C102.508 90.6784 103.232 89.956 103.232 89.0648C103.232 88.1737 102.508 87.4513 101.616 87.4513C100.724 87.4513 100.001 88.1737 100.001 89.0648C100.001 89.956 100.724 90.6784 101.616 90.6784Z" fill="#797C99"/>
<path d="M169.933 157.222L178.275 144.202C177.24 138.575 177.32 132.953 178.464 127.347C178.923 125.093 180.963 123.379 182.843 121.756C183.805 120.926 185.155 120.713 186.325 121.211C188.294 122.049 190.324 122.899 192.273 123.734C193.068 124.074 193.576 124.862 193.561 125.725C193.554 126.112 193.505 126.492 193.384 126.839C194.542 126.752 195.977 126.639 197.007 127.173C198.103 127.742 198.798 129.003 198.691 130.233C199.686 130.43 200.705 130.691 201.496 131.327C202.599 132.213 202.977 133.889 202.361 135.162C203.472 136.123 204.001 137.697 203.888 139.161C203.775 140.625 203.212 142.011 202.655 143.369C202.427 143.926 202.194 144.491 201.815 144.959C201.435 145.426 200.882 145.789 200.281 145.797C199.678 145.804 199.059 145.372 198.987 144.775C197.741 148.192 194.675 150.999 191.186 152.037L183.11 165.034L169.933 157.222Z" fill="#EBA58E"/>
<path d="M169.933 157.222L183.11 165.034L186.69 159.273C184.058 151.73 174.066 150.772 174.066 150.772L169.933 157.222Z" fill="#E78882"/>
<path d="M183.584 130.775C183.516 130.775 183.457 130.727 183.444 130.658C183.278 129.743 183.902 128.91 184.594 128.492C185.14 128.162 185.707 128.055 186.308 127.941C186.499 127.905 186.692 127.869 186.887 127.824C188.736 127.402 193.318 126.705 193.364 126.699C193.447 126.687 193.514 126.741 193.526 126.818C193.538 126.896 193.484 126.968 193.406 126.98C193.361 126.987 188.789 127.681 186.951 128.102C186.752 128.147 186.556 128.184 186.361 128.221C185.787 128.329 185.244 128.432 184.743 128.735C184.153 129.091 183.583 129.829 183.725 130.608C183.738 130.685 183.688 130.76 183.61 130.773C183.601 130.774 183.593 130.775 183.584 130.775Z" fill="#222221"/>
<path d="M188.823 132.358C188.808 132.358 188.792 132.355 188.777 132.35C188.703 132.324 188.663 132.243 188.689 132.169C188.895 131.573 189.417 131.06 190.12 130.761C190.738 130.498 191.419 130.416 192.065 130.356C194.239 130.152 196.543 129.964 198.701 130.091C198.779 130.096 198.839 130.163 198.834 130.241C198.829 130.32 198.761 130.377 198.683 130.375C196.547 130.248 194.255 130.435 192.091 130.639C191.468 130.698 190.811 130.775 190.23 131.023C189.602 131.29 189.138 131.742 188.957 132.263C188.937 132.321 188.882 132.358 188.823 132.358Z" fill="#222221"/>
<path d="M193.599 135.669C193.538 135.669 193.483 135.631 193.463 135.571C193.439 135.496 193.481 135.416 193.555 135.392C196.451 134.472 199.672 134.339 202.396 135.024C202.472 135.043 202.518 135.12 202.499 135.197C202.48 135.273 202.403 135.322 202.326 135.3C199.654 134.627 196.487 134.76 193.642 135.663C193.628 135.667 193.613 135.669 193.599 135.669Z" fill="#222221"/>
<path d="M198.987 144.918C198.98 144.918 198.972 144.917 198.964 144.916C198.886 144.903 198.834 144.83 198.847 144.753C199.165 142.814 199.185 141.202 198.907 139.825C198.892 139.748 198.942 139.673 199.018 139.657C199.098 139.643 199.17 139.692 199.186 139.768C199.471 141.18 199.451 142.825 199.127 144.798C199.116 144.868 199.055 144.918 198.987 144.918Z" fill="#222221"/>
<path d="M199.236 141.54C199.196 141.54 199.156 141.524 199.128 141.49C199.077 141.431 199.084 141.341 199.144 141.29C199.695 140.82 200.164 140.268 200.54 139.649C200.58 139.582 200.668 139.562 200.735 139.601C200.803 139.641 200.824 139.729 200.783 139.796C200.392 140.441 199.902 141.016 199.328 141.506C199.302 141.529 199.269 141.54 199.236 141.54Z" fill="#222221"/>
<path d="M107.819 152.318C107.801 152.318 107.781 152.314 107.763 152.306C103.803 150.589 100.299 147.669 97.8972 144.085C97.8534 144.02 97.871 143.931 97.9358 143.888C98.0012 143.844 98.0894 143.861 98.1332 143.927C100.506 147.466 103.965 150.349 107.876 152.045C107.947 152.077 107.98 152.16 107.95 152.232C107.927 152.286 107.875 152.318 107.819 152.318Z" fill="#222221"/>
<path d="M109.075 153.569C105.452 153.569 101.892 152.622 98.7447 150.818C98.6765 150.779 98.6531 150.692 98.6924 150.624C98.7316 150.555 98.8192 150.532 98.8863 150.571C102.14 152.436 105.844 153.377 109.591 153.278C109.677 153.281 109.735 153.337 109.737 153.416C109.739 153.495 109.677 153.56 109.598 153.562C109.424 153.566 109.25 153.569 109.075 153.569Z" fill="#222221"/>
<path d="M104.335 149.505L132.863 196.542C139.897 208.141 156.524 208.743 164.382 197.685L187.072 165.75C184.408 157.488 177.733 151.548 169.109 150.484C163.616 160.435 155.944 170.116 148.699 180.184C144.046 169.166 137.483 159.15 131.846 147.917C128.436 141.122 125.839 133.937 122.353 127.189C120.612 123.819 116.143 121.395 112.399 122.02C109.267 122.543 106.442 124.45 104.525 126.983C102.568 129.569 101.51 132.763 101.178 135.988C100.705 140.591 102.071 145.466 104.335 149.505Z" fill="white"/>
<path d="M148.699 180.326C148.694 180.326 148.688 180.326 148.683 180.325C148.632 180.32 148.587 180.287 148.567 180.239C145.751 173.568 142.297 167.38 138.641 160.83C136.33 156.689 133.941 152.409 131.719 147.982C131.684 147.911 131.712 147.825 131.783 147.791C131.851 147.755 131.938 147.784 131.973 147.854C134.192 152.275 136.58 156.554 138.889 160.691C142.507 167.173 145.927 173.299 148.731 179.897C150.355 177.643 152.019 175.382 153.63 173.192C159.355 165.413 164.762 158.065 168.985 150.415C169.013 150.364 169.069 150.338 169.127 150.343C172.505 150.759 175.622 151.911 178.393 153.767C178.458 153.811 178.475 153.899 178.431 153.965C178.388 154.029 178.299 154.046 178.234 154.003C175.527 152.19 172.484 151.057 169.188 150.636C164.962 158.272 159.569 165.602 153.86 173.36C152.2 175.615 150.484 177.947 148.815 180.267C148.788 180.305 148.744 180.326 148.699 180.326Z" fill="#222221"/>
<path d="M178.796 168.822C178.796 169.815 177.99 170.621 176.995 170.621C176 170.621 175.194 169.815 175.194 168.822C175.194 167.828 176 167.022 176.995 167.022C177.99 167.022 178.796 167.828 178.796 168.822Z" fill="#A59B95"/>
<path d="M174.862 174.645C174.862 175.639 174.056 176.444 173.061 176.444C172.066 176.444 171.26 175.639 171.26 174.645C171.26 173.651 172.066 172.846 173.061 172.846C174.056 172.846 174.862 173.651 174.862 174.645Z" fill="#A59B95"/>
<path d="M141.21 194.34C141.191 194.34 141.173 194.337 141.155 194.329C141.083 194.299 141.048 194.216 141.078 194.144C141.12 194.043 145.296 184.041 148.59 180.093C148.623 180.053 148.677 180.034 148.728 180.046C148.78 180.057 148.822 180.095 148.836 180.146C150.246 185.172 150.404 193.778 150.405 193.865C150.406 193.943 150.344 194.008 150.265 194.009C150.265 194.009 150.264 194.009 150.263 194.009C150.185 194.009 150.122 193.947 150.121 193.869C150.119 193.785 149.968 185.51 148.634 180.488C145.396 184.539 141.383 194.154 141.342 194.253C141.318 194.307 141.266 194.34 141.21 194.34Z" fill="#222221"/>
<path d="M146.615 199.036C146.564 199.036 146.514 199.007 146.489 198.959C145.398 196.841 145.042 194.177 145.458 191.253C145.829 188.651 146.735 186.149 147.611 183.728C147.638 183.655 147.721 183.618 147.793 183.643C147.867 183.67 147.905 183.751 147.879 183.825C147.007 186.232 146.106 188.721 145.74 191.294C145.455 193.291 145.398 196.22 146.742 198.829C146.778 198.899 146.75 198.984 146.68 199.021C146.66 199.031 146.638 199.036 146.615 199.036Z" fill="#222221"/>
<path d="M146.902 194.87C146.894 194.87 146.886 194.869 146.878 194.868C146.801 194.855 146.748 194.782 146.761 194.704L148.166 186.282C148.179 186.205 148.253 186.154 148.33 186.165C148.407 186.178 148.46 186.252 148.447 186.329L147.042 194.751C147.03 194.82 146.97 194.87 146.902 194.87Z" fill="#222221"/>
<path d="M170.357 186.207C166.604 189.795 163.641 194.17 159.698 197.551C155.755 200.931 150.316 203.269 145.372 201.672C141.289 200.353 138.474 196.707 135.971 193.226C125.658 178.877 116.142 163.957 107.482 148.555C104.956 144.063 102.454 139.329 101.42 134.347C101.32 134.892 101.234 135.439 101.178 135.988C100.704 140.592 102.071 145.467 104.334 149.505L132.862 196.542C139.896 208.141 156.524 208.743 164.381 197.685L175.379 182.206C173.592 183.389 171.907 184.726 170.357 186.207Z" fill="#E4E4E0"/>
<path d="M149.007 205.764C148.775 205.764 148.542 205.76 148.308 205.751C141.889 205.519 136.069 202.103 132.741 196.616L104.213 149.579C101.719 145.129 100.592 140.299 101.037 135.973C101.045 135.895 101.118 135.836 101.193 135.846C101.271 135.855 101.328 135.924 101.32 136.002C100.88 140.27 101.995 145.04 104.459 149.435L132.984 196.468C136.262 201.874 141.995 205.238 148.318 205.468C154.644 205.698 160.603 202.757 164.265 197.602L186.956 165.668C187.001 165.604 187.09 165.588 187.154 165.634C187.218 165.679 187.234 165.768 187.188 165.832L164.498 197.767C160.915 202.809 155.165 205.764 149.007 205.764Z" fill="#222221"/>
<path d="M352 233H0V237H352V233Z" fill="#F0A324"/>
<path d="M326.776 87.6303C323.111 83.9692 317.169 83.9692 313.505 87.6303L309.661 91.4698L305.817 87.6303C302.152 83.9692 296.21 83.9692 292.545 87.6303C288.88 91.2914 288.88 97.2268 292.545 100.888L296.389 104.727L309.661 117.985L322.934 104.727L326.777 100.888C330.441 97.2268 330.441 91.2914 326.776 87.6303Z" fill="#F0A324"/>
<path d="M306.911 112.992L303.989 96.9404L302.441 102.641H287.689V101.126H301.281L304.282 90.0824L307.048 105.278L309.108 95.8683L311.826 104.145L314.429 91.1403L317.408 101.45H332.1V102.964H316.267L314.697 97.5267L312.181 110.089L309.401 101.62L306.911 112.992Z" fill="white"/>
<path d="M77.3964 116.582L48.6898 145.257C47.7013 146.244 46.099 146.244 45.1111 145.257L28.1872 128.352C27.1987 127.365 27.1987 125.764 28.1872 124.777L56.8938 96.1024C57.8823 95.115 59.4845 95.115 60.4725 96.1024L77.3964 113.007C78.3843 113.994 78.3843 115.595 77.3964 116.582Z" fill="#F0A324"/>
<path d="M37.6378 124.083C36.5042 125.216 36.5042 127.052 37.6378 128.185C38.7713 129.317 40.6102 129.317 41.7438 128.185L44.537 125.394L40.431 121.293L37.6378 124.083Z" fill="white"/>
<path d="M43.2249 118.502L40.4316 121.293L44.5376 125.394L47.3309 122.604C48.465 121.472 48.4644 119.635 47.3309 118.502C46.1973 117.37 44.359 117.37 43.2249 118.502Z" fill="#CC6164"/>
<path d="M45.2779 131.715C44.1443 132.847 44.1443 134.684 45.2779 135.816C46.4115 136.948 48.2503 136.948 49.3839 135.816L52.1771 133.025L48.0712 128.924L45.2779 131.715Z" fill="white"/>
<path d="M50.865 126.134L48.0718 128.924L52.1778 133.025L54.9716 130.235C56.1051 129.103 56.1051 127.266 54.9716 126.134C53.8369 125.001 51.9986 125.001 50.865 126.134Z" fill="#CC6164"/>
<path d="M50.6114 111.124C49.4778 112.256 49.4778 114.093 50.6114 115.225C51.745 116.358 53.5838 116.358 54.7174 115.225L57.5106 112.435L53.4047 108.334L50.6114 111.124Z" fill="white"/>
<path d="M56.1991 105.543L53.4053 108.333L57.5113 112.435L60.3045 109.644C61.4386 108.512 61.4386 106.675 60.3045 105.543C59.1709 104.41 57.3327 104.41 56.1991 105.543Z" fill="#CC6164"/>
<path d="M58.252 118.755C57.1185 119.888 57.1185 121.724 58.252 122.857C59.3856 123.989 61.2244 123.989 62.358 122.857L65.1512 120.067L61.0453 115.965L58.252 118.755Z" fill="white"/>
<path d="M63.8391 113.174L61.0459 115.965L65.1519 120.066L67.9451 117.275C69.0787 116.143 69.0787 114.306 67.9451 113.174C66.8116 112.042 64.9733 112.042 63.8391 113.174Z" fill="#CC6164"/>
<path d="M82.0363 32.0934C78.3711 28.4323 72.4291 28.4323 68.7639 32.0934L64.9202 35.9329L61.0764 32.0934C57.4112 28.4323 51.4692 28.4323 47.8041 32.0934C44.1389 35.7545 44.1389 41.6898 47.8041 45.3509L51.6478 49.1904L64.9202 62.448L78.1925 49.1904L82.0363 45.3509C85.7015 41.6898 85.7015 35.7545 82.0363 32.0934Z" fill="#F0A324"/>
<path d="M72.6292 43.1306H67.6905V38.1974H62.1501V43.1306H57.2114V48.6649H62.1501V53.598H67.6905V48.6649H72.6292V43.1306Z" fill="white"/>
</g>
<defs>
<clipPath id="clip0_324_920">
<rect width="352" height="237" fill="white"/>
</clipPath>
</defs>
</svg>
